<svg xmlns="http://www.w3.org/2000/svg" viewBox="0 0 24.03 24"><defs><style>.cls-1{fill:#006dc8;}.cls-2{fill:#00be28;}.cls-3{fill:#00b9a7;}.cls-4{fill:#009e4a;}.cls-5{fill:#00682a;}.cls-6{fill:#bdbdbd;}.cls-7{opacity:0.54;}.cls-8{fill:none;}</style></defs><title>Asset 1</title><g id="Layer_2" data-name="Layer 2"><g id="Layer_1-2" data-name="Layer 1"><path class="cls-1" d="M23.84,12.68,18.47,22a1.39,1.39,0,0,1-2.41,0l-1.41-2.44L12,15l-1.33-2.32a1.4,1.4,0,0,1,0-1.4L12,9l2.62-4.53L16.05,2a1.4,1.4,0,0,1,2.42,0c1.79,3.09,3.59,6.21,5.37,9.31A1.36,1.36,0,0,1,23.84,12.68Z"/><path class="cls-2" d="M18.61,12.68,13.24,22a1.39,1.39,0,0,1-2.41,0L9.41,19.54,6.79,15,5.45,12.69a1.4,1.4,0,0,1,0-1.4L6.79,9,9.41,4.44,10.82,2a1.39,1.39,0,0,1,2.41,0C15,5.08,16.83,8.2,18.61,11.3A1.41,1.41,0,0,1,18.61,12.68Z"/><path class="cls-3" d="M13.37,12.68,8,22a1.39,1.39,0,0,1-2.41,0L4.18,19.54,1.55,15,.22,12.69a1.4,1.4,0,0,1,0-1.4L1.55,9,4.17,4.44,5.58,2A1.4,1.4,0,0,1,8,2c1.79,3.09,3.59,6.21,5.37,9.31A1.36,1.36,0,0,1,13.37,12.68Z"/><path class="cls-3" d="M9.41,19.54,8,22a1.39,1.39,0,0,1-2.41,0L.22,12.69a1.4,1.4,0,0,1,0-1.4L5.59,2A1.39,1.39,0,0,1,8,2L9.41,4.43h0l-4,6.86a1.4,1.4,0,0,0,0,1.4Z"/><path class="cls-4" d="M10.69,12.69,12,15,9.41,19.54l-4-6.85a1.4,1.4,0,0,1,0-1.4l4-6.86L12,9l-1.34,2.32A1.4,1.4,0,0,0,10.69,12.69Z"/><path class="cls-2" d="M14.65,4.43,12,9,9.41,4.43h0L10.82,2a1.4,1.4,0,0,1,2.42,0Z"/><path class="cls-2" d="M14.65,19.54,13.24,22a1.4,1.4,0,0,1-2.42,0L9.41,19.54,12,15Z"/><path class="cls-1" d="M23.84,12.68,18.48,22a1.4,1.4,0,0,1-2.42,0l-1.41-2.44,4-6.86a1.38,1.38,0,0,0,0-1.39l-4-6.86L16.06,2a1.39,1.39,0,0,1,2.41,0l5.37,9.3A1.38,1.38,0,0,1,23.84,12.68Z"/><path class="cls-5" d="M18.61,12.68l-4,6.86L12,15l-1.34-2.32a1.4,1.4,0,0,1,0-1.4L12,9l2.62-4.54,4,6.86A1.38,1.38,0,0,1,18.61,12.68Z"/><g id="Layer_2-2" data-name="Layer 2-2"><rect class="cls-6" x="5.82" y="14.05" width="17.82" height="5.35" rx="0.45" ry="0.45"/><g class="cls-7"><path d="M8.44,14.82H9.58a2.15,2.15,0,0,1,1.14.23.81.81,0,0,1,.35.73.85.85,0,0,1-.18.55.79.79,0,0,1-.49.28h0a1,1,0,0,1,.59.3.86.86,0,0,1,.19.6,1,1,0,0,1-.36.81,1.55,1.55,0,0,1-1,.29H8.44Zm.63,1.58h.6a1,1,0,0,0,.57-.13.46.46,0,0,0,.18-.42.43.43,0,0,0-.2-.39,1.28,1.28,0,0,0-.61-.12H9.07Zm0,.5v1.21h.66a1,1,0,0,0,.59-.15.57.57,0,0,0,.2-.47.5.5,0,0,0-.2-.44,1,1,0,0,0-.62-.15Z"/><path d="M14.13,18.64H12V14.82h2.16v.53H12.6v1H14v.52H12.6v1.2h1.53Z"/><path d="M16.27,18.64h-.62V15.36H14.53v-.54H17.4v.54H16.27Z"/><path d="M20.35,18.64,20,17.58H18.51l-.38,1.06h-.65l1.42-3.83h.68L21,18.64ZM19.8,17l-.36-1a2.53,2.53,0,0,0-.1-.33c0-.15-.08-.26-.1-.33a5.75,5.75,0,0,1-.2.71l-.35,1Z"/></g></g><rect class="cls-8" width="24" height="24"/></g></g></svg>