<svg xmlns="http://www.w3.org/2000/svg" viewBox="0 0 53 24"><defs><style>.cls-1{fill:none;}.cls-2{opacity:0.87;}</style></defs><title>Asset 2</title><g id="Layer_2" data-name="Layer 2"><g id="Layer_2-2" data-name="Layer 2"><rect class="cls-1" width="53" height="24"/><g id="_Group_" data-name="&lt;Group&gt;"><path id="_Compound_Path_" data-name="&lt;Compound Path&gt;" class="cls-2" d="M7.64,12a3.76,3.76,0,0,1-3.82,3.81,3.82,3.82,0,1,1,0-7.63A3.78,3.78,0,0,1,7.64,12ZM1.53,12a2.39,2.39,0,0,0,2.29,2.56A2.39,2.39,0,0,0,6.11,12,2.38,2.38,0,0,0,3.82,9.45,2.38,2.38,0,0,0,1.53,12Z"/><path id="_Compound_Path_2" data-name="&lt;Compound Path&gt;" class="cls-2" d="M12.74,9.61a1.76,1.76,0,0,0-.7-.16c-1.26,0-1.86,1.2-1.86,2.69v3.52H8.65V8.32h1.53v1A1.85,1.85,0,0,1,12,8.18a2.39,2.39,0,0,1,1,.23Z"/><path id="_Compound_Path_3" data-name="&lt;Compound Path&gt;" class="cls-2" d="M20.68,12a3.82,3.82,0,1,1-3.82-3.82A3.76,3.76,0,0,1,20.68,12Zm-6.11,0a2.39,2.39,0,0,0,2.29,2.56A2.39,2.39,0,0,0,19.15,12a2.3,2.3,0,1,0-4.58,0Z"/><path id="_Compound_Path_4" data-name="&lt;Compound Path&gt;" class="cls-2" d="M28.3,15.66H26.75l0-.06v-4c0-1.48-.39-2.14-1.65-2.14-1.43,0-1.94,1-1.94,2.29v3.94H21.65V8.32h1.53V9.51A2.25,2.25,0,0,1,25.12,8.2,2.58,2.58,0,0,1,28,9.76,2.39,2.39,0,0,1,30.21,8.2c2-.15,3.18.82,3.18,3.22v4.24H31.86V11.57c0-1.48-.38-2.14-1.65-2.14s-1.81.81-1.91,2Z"/><path id="_Compound_Path_5" data-name="&lt;Compound Path&gt;" class="cls-2" d="M36.22,15.66H34.69V8.32h1.53Z"/><path id="_Compound_Path_6" data-name="&lt;Compound Path&gt;" class="cls-2" d="M43.94,14.69a3.63,3.63,0,0,1-2.81,1.12,3.82,3.82,0,1,1,0-7.63A3.66,3.66,0,0,1,43.94,9.3l-1.06.95a2,2,0,0,0-1.75-.8A2.38,2.38,0,0,0,38.84,12a2.39,2.39,0,0,0,2.29,2.56,2,2,0,0,0,1.75-.82Z"/><path id="_Compound_Path_7" data-name="&lt;Compound Path&gt;" class="cls-2" d="M52.15,12a3.82,3.82,0,1,1-3.82-3.82A3.76,3.76,0,0,1,52.15,12ZM46,12a2.3,2.3,0,1,0,4.58,0A2.3,2.3,0,1,0,46,12Z"/></g><path id="_Path_" data-name="&lt;Path&gt;" class="cls-2" d="M35.45,7.49a.84.84,0,1,1,.85-.85A.84.84,0,0,1,35.45,7.49Z"/></g></g></svg>